<svg xmlns="http://www.w3.org/2000/svg" viewBox="0 0 904.3 294.8" enable-background="new 0 0 904.3 294.8"><style type="text/css">.st0{fill:#74CADF;} .st1{fill:#CDE8EC;} .st2{fill:#FFFFFF;} .st3{fill:#898998;}</style><path d="M370.7 173.7l19.4 60.5 19.4-60.5h27.5v87h-21v-20.3l2-41.6-21 61.9h-13.9l-21.1-61.9 2 41.6v20.3h-21v-87h27.7zM472.7 260.7h-20.9v-87h20.9v87zM559.9 260.7h-20.9l-30.8-54.1v54.1h-21v-87h21l30.8 54.1v-54.1h20.9v87zM618 237.6c0-3.1-1.1-5.5-3.3-7.2-2.2-1.7-6-3.5-11.4-5.3-5.5-1.8-9.9-3.6-13.4-5.3-11.3-5.5-16.9-13.1-16.9-22.8 0-4.8 1.4-9.1 4.2-12.8 2.8-3.7 6.8-6.5 11.9-8.6 5.1-2.1 10.9-3.1 17.3-3.1 6.3 0 11.9 1.1 16.8 3.3 5 2.2 8.8 5.4 11.6 9.5 2.7 4.1 4.1 8.8 4.1 14.1h-20.9c0-3.5-1.1-6.3-3.3-8.2-2.2-2-5.1-2.9-8.8-2.9-3.7 0-6.7.8-8.9 2.5s-3.3 3.8-3.3 6.3c0 2.2 1.2 4.3 3.6 6.1 2.4 1.8 6.6 3.7 12.6 5.6 6 1.9 11 4 14.8 6.2 9.4 5.4 14.1 12.9 14.1 22.4 0 7.6-2.9 13.6-8.6 17.9-5.7 4.3-13.6 6.5-23.6 6.5-7 0-13.4-1.3-19.1-3.8-5.7-2.5-10-6-12.9-10.4-2.9-4.4-4.3-9.5-4.3-15.2h21c0 4.7 1.2 8.1 3.6 10.3s6.3 3.3 11.7 3.3c3.5 0 6.2-.7 8.2-2.2s3.2-3.5 3.2-6.2zM679.3 228.3l-8.6 9.4v22.9h-21v-87h21v38.3l7.3-10.9 18.8-27.3h25.9l-29.4 38.5 29.4 48.5h-24.8l-18.6-32.4zM739.5 241.2c3.2 0 5.8.9 7.9 2.8 2.1 1.9 3.2 4.3 3.2 7.3 0 2.9-1.1 5.4-3.2 7.3-2.1 1.9-4.8 2.8-7.9 2.8-3.2 0-5.9-1-8-2.9-2.1-1.9-3.1-4.3-3.1-7.2 0-2.9 1-5.3 3.1-7.2 2.1-2 4.8-2.9 8-2.9zM765 260.7v-87h31.2c11.2 0 19.7 2.1 25.5 6.2 5.8 4.1 8.8 10.1 8.8 17.9 0 4.5-1 8.3-3.1 11.5-2.1 3.2-5.1 5.5-9.1 7 4.5 1.2 8 3.4 10.5 6.7 2.4 3.3 3.6 7.2 3.6 11.9 0 8.5-2.7 14.9-8.1 19.2-5.4 4.3-13.4 6.5-24 6.5h-35.3zm20.9-50.7h10.9c4.6 0 7.8-.9 9.8-2.5 2-1.6 2.9-4.1 2.9-7.2 0-3.7-1.1-6.3-3.2-7.9-2.1-1.6-5.5-2.4-10.2-2.4h-10.3v20zm0 13.7v20.8h13.7c3.8 0 6.7-.9 8.7-2.6 2-1.7 3-4.2 3-7.3 0-7.2-3.6-10.9-10.8-10.9h-14.6zM865.6 211.5l16-37.8h22.6l-28 55.7v31.2h-21.2v-31.2l-28-55.7h22.5l16.1 37.8z"/><path class="st0" d="M243.1 289.1h-191.3c-25.4 0-46.1-20.6-46.1-46.1v-191.2c0-25.4 20.6-46.1 46.1-46.1h191.2c25.4 0 46.1 20.6 46.1 46.1v191.2c0 25.5-20.6 46.1-46 46.1z"/><path class="st1" d="M239.6 262.6h-184.3c-12.7 0-23-10.3-23-23v-184.3c0-12.7 10.3-23 23-23h184.3c12.7 0 23 10.3 23 23v184.3c0 12.7-10.3 23-23 23z"/><circle class="st2" cx="147.4" cy="147.4" r="80.6"/><circle class="st3" cx="118.7" cy="147.4" r="11.5"/><circle class="st3" cx="176.2" cy="147.4" r="11.5"/><path d="M243.1 0h-191.3c-28.5 0-51.8 23.3-51.8 51.8v191.2c0 28.6 23.3 51.8 51.8 51.8h191.2c28.6 0 51.8-23.3 51.8-51.8v-191.2c.1-28.5-23.2-51.8-51.7-51.8zm40.3 243.1c0 22.2-18.1 40.3-40.3 40.3h-191.3c-22.2 0-40.3-18.1-40.3-40.3v-191.3c0-22.2 18.1-40.3 40.3-40.3h191.2c22.2 0 40.3 18.1 40.3 40.3v191.3zM147.4 38c1.5 0 3-.6 4.1-1.7 1.1-1.1 1.7-2.6 1.7-4.1s-.6-3-1.7-4.1c-1.1-1.1-2.6-1.7-4.1-1.7s-3 .6-4.1 1.7c-1.1 1.1-1.7 2.6-1.7 4.1s.6 3 1.7 4.1c1.1 1.1 2.6 1.7 4.1 1.7zM239.6 26.5h-63.4c-3.2 0-5.8 2.6-5.8 5.8s2.6 5.8 5.8 5.8h63.4c9.5 0 17.3 7.8 17.3 17.3v184.3c0 9.5-7.8 17.3-17.3 17.3h-184.3c-9.5 0-17.3-7.8-17.3-17.3v-184.4c0-9.5 7.8-17.3 17.3-17.3h64.5c3.2 0 5.8-2.6 5.8-5.8s-2.6-5.8-5.8-5.8h-64.5c-15.9 0-28.8 12.9-28.8 28.8v184.3c0 15.9 12.9 28.8 28.8 28.8h184.3c15.9 0 28.8-12.9 28.8-28.8v-184.2c0-15.9-12.9-28.8-28.8-28.8zM205.1 96.9c1.5 0 2.9-.5 4-1.6 2.3-2.2 2.3-5.9.1-8.1l-.7-.7c-2.2-2.3-5.9-2.3-8.1 0-2.3 2.2-2.3 5.9 0 8.1l.6.6c1.2 1.1 2.6 1.7 4.1 1.7zM86.4 208.5c16.8 16.8 39 25.3 61.1 25.3s44.2-8.4 61.1-25.3c13.3-13.3 21.8-30.2 24.4-48.9 2.6-18-.7-36.7-9.2-52.7-1.5-2.8-5-3.9-7.8-2.4s-3.9 5-2.4 7.8c15.5 29.2 10.2 64.6-13.2 88.1-13.1 13.1-30 20.4-47.2 21.7v-9.1c0-3.2-2.6-5.8-5.8-5.8s-5.8 2.6-5.8 5.8v9.1c-17.2-1.3-34.1-8.5-47.2-21.7-29.2-29.2-29.2-76.7 0-105.9 13-13 29.8-20.4 47.2-21.8v9.3c0 3.2 2.6 5.8 5.8 5.8s5.8-2.6 5.8-5.8v-9.2c9.7.8 19.3 3.4 28.3 8 2.8 1.4 6.3.3 7.8-2.5 1.4-2.8.3-6.3-2.5-7.8-16.1-8.3-34.2-11.2-52.2-8.5-18.4 2.8-35.1 11.2-48.2 24.3-33.7 33.7-33.7 88.6 0 122.2zM101.4 147.4c0 9.5 7.8 17.3 17.3 17.3s17.3-7.7 17.3-17.3-7.8-17.3-17.3-17.3-17.3 7.8-17.3 17.3zm23 0c0 3.2-2.6 5.8-5.8 5.8-3.2 0-5.8-2.6-5.8-5.8s2.6-5.8 5.8-5.8c3.2.1 5.8 2.7 5.8 5.8zM176.2 130.2c-9.5 0-17.3 7.8-17.3 17.3s7.8 17.3 17.3 17.3 17.3-7.8 17.3-17.3-7.8-17.3-17.3-17.3zm0 23c-3.2 0-5.8-2.6-5.8-5.8s2.6-5.8 5.8-5.8 5.8 2.6 5.8 5.8-2.6 5.8-5.8 5.8zM397.1 93.3h-33v20.7h38.9v16.1h-59.9v-87h60v16.2h-39.1v18.3h33v15.7zM432.5 114h36.5v16.1h-57.5v-87h21v70.9zM531.8 93.3h-33v20.7h38.9v16.1h-59.9v-87h60v16.2h-39.1v18.3h33v15.7zM616.7 100.7c-.3 6.1-1.9 11.4-4.9 16-3 4.6-7.2 8.2-12.6 10.8-5.4 2.5-11.6 3.8-18.5 3.8-11.4 0-20.4-3.7-27-11.2-6.6-7.4-9.9-18-9.9-31.5v-4.3c0-8.5 1.5-16 4.5-22.4 3-6.4 7.2-11.3 12.8-14.8 5.6-3.5 12-5.2 19.4-5.2 10.6 0 19 2.8 25.4 8.3 6.4 5.6 10.1 13.2 10.9 23h-20.8c-.2-5.3-1.5-9.1-4-11.4-2.5-2.3-6.3-3.5-11.5-3.5s-9 2-11.5 5.9c-2.4 3.9-3.7 10.1-3.8 18.7v6.2c0 9.3 1.2 15.9 3.5 19.9 2.3 4 6.3 6 12 6 4.8 0 8.5-1.1 11.1-3.4 2.5-2.3 3.9-5.9 4.1-10.8h20.8zM692.7 59.4h-26.1v70.8h-21v-70.8h-25.6v-16.2h72.7v16.2zM733.8 99.4h-11.3v30.8h-21v-87h34.2c10.3 0 18.4 2.3 24.2 6.9 5.8 4.6 8.7 11 8.7 19.4 0 6-1.2 11.1-3.7 15-2.4 4-6.3 7.2-11.5 9.7l18.2 35.1v.9h-22.5l-15.3-30.8zm-11.3-16.1h13.3c4 0 7-1 9-3.1s3-5 3-8.8c0-3.8-1-6.7-3-8.8-2-2.1-5-3.2-9-3.2h-13.3v23.9zM855 88.5c0 8.5-1.6 16-4.7 22.5s-7.6 11.6-13.4 15.1c-5.8 3.5-12.4 5.3-19.8 5.3s-14-1.7-19.7-5.1c-5.7-3.4-10.2-8.3-13.4-14.6-3.2-6.3-4.9-13.6-5-21.8v-4.9c0-8.5 1.6-16 4.7-22.5s7.6-11.5 13.4-15.1c5.8-3.5 12.5-5.3 19.9-5.3 7.4 0 13.9 1.8 19.7 5.3 5.8 3.5 10.3 8.5 13.5 15 3.2 6.5 4.8 13.9 4.9 22.3v3.8zm-21.4-3.7c0-8.6-1.4-15.2-4.3-19.7s-7-6.7-12.4-6.7c-10.5 0-16.1 7.9-16.7 23.7l-.1 6.4c0 8.5 1.4 15.1 4.2 19.7 2.8 4.6 7 6.9 12.6 6.9 5.3 0 9.4-2.2 12.2-6.7 2.9-4.5 4.3-11 4.4-19.4v-4.2z"/></svg>